<svg xmlns="http://www.w3.org/2000/svg" version="1.1" xmlns:xlink="http://www.w3.org/1999/xlink" xmlns:svgjs="http://svgjs.dev/svgjs" width="1500" height="1500" viewBox="0 0 1500 1500"><rect width="1500" height="1500" fill="#ffffff"></rect><g transform="matrix(0.6666666666666666,0,0,0.6666666666666666,249.39393939393938,438.5856950067477)"><svg viewBox="0 0 396 247" data-background-color="#e0ded5" preserveAspectRatio="xMidYMid meet" height="935" width="1500" xmlns="http://www.w3.org/2000/svg" xmlns:xlink="http://www.w3.org/1999/xlink"><g id="tight-bounds" transform="matrix(1,0,0,1,0.2400000000000091,-0.09999999999999432)"><svg viewBox="0 0 395.52 247.2" height="247.2" width="395.52"><g><svg></svg></g><g><svg viewBox="0 0 395.52 247.2" height="247.2" width="395.52"><mask id="31319332-a1cc-4387-a5d4-ec435b604417"><rect width="640" height="400" fill="white"></rect><g transform="matrix(1,0,0,1,27.643870967741947,107.61025311923063)"><svg viewBox="0 0 340.2322580645161 31.97949376153871" height="31.97949376153871" width="340.2322580645161"><g><svg viewBox="0 0 340.2322580645161 31.97949376153871" height="31.97949376153871" width="340.2322580645161"><g><svg viewBox="0 0 340.2322580645161 31.97949376153871" height="31.97949376153871" width="340.2322580645161"><g id="SvgjsG3470"><svg viewBox="0 0 340.2322580645161 31.97949376153871" height="31.97949376153871" width="340.2322580645161" id="SvgjsSvg3469"><g><svg viewBox="0 0 340.2322580645161 31.97949376153871" height="31.97949376153871" width="340.2322580645161"><g transform="matrix(1,0,0,1,0,0)"><svg width="340.2322580645161" viewBox="0 -38.74 420.97 40.47" height="31.97949376153871" data-palette-color="#243cfc"><path d="M11.06 0L11.06-4.2 14.45-4.2 14.45-33.01 6.01-33.01 6.01-27.25 1-27.25 1-37.01 34.01-37.01 34.01-27.25 29-27.25 29-33.01 19.24-33.01 19.24-4.2 23.05-4.2 23.05 0 11.06 0ZM64.5-32.81L64.5-37.01 76.51-37.01 76.51-32.81 73-32.81 73-4.2 76.51-4.2 76.51 0 64.5 0 64.5-4.2 68.21-4.2 68.21-17.5 46.8-17.5 46.8-4.2 50.51-4.2 50.51 0 38.5 0 38.5-4.2 42.01-4.2 42.01-32.81 38.5-32.81 38.5-37.01 50.51-37.01 50.51-32.81 46.8-32.81 46.8-21.61 68.21-21.61 68.21-32.81 64.5-32.81ZM83.49-32.79L83.49-37.01 110-37.01 110-26.54 105-26.54 105-32.79 91.79-32.79 91.79-20.95 102.9-20.95 102.9-16.75 91.79-16.75 91.79-4.2 105-4.2 105-10.45 110-10.45 110 0 83.49 0 83.49-4.2 87.01-4.2 87.01-32.79 83.49-32.79ZM111.39 0Q111.39 0 111.39 0ZM125.82 0L125.82-4.2 129.34-4.2 129.34-32.79 125.82-32.79 125.82-37.06 142.47-37.01Q144.72-37.01 146.69-36.17 148.67-35.33 150.14-33.87 151.6-32.42 152.44-30.44 153.29-28.47 153.29-26.2L153.29-26.2Q153.29-23.83 151.97-21.88 150.65-19.92 148.21-18.75L148.21-18.75Q149.4-18.12 150.38-17.27 151.36-16.43 152.04-15.43 152.72-14.43 153.1-13.31 153.48-12.18 153.48-11.01L153.48-11.01Q153.48-8.69 152.64-6.69 151.8-4.69 150.33-3.2 148.87-1.71 146.9-0.85 144.94 0 142.69 0L142.69 0 125.82 0ZM142.74-16.46L134.12-16.46 134.12-4.2 142.74-4.2Q143.91-4.2 144.91-4.79 145.91-5.37 146.67-6.31 147.43-7.25 147.85-8.45 148.28-9.64 148.28-10.89L148.28-10.89Q148.28-11.96 147.84-12.96 147.4-13.96 146.66-14.75 145.91-15.53 144.9-15.99 143.89-16.46 142.74-16.46L142.74-16.46ZM142.52-32.79L134.12-32.79 134.12-20.7 142.52-20.7Q143.69-20.7 144.7-21.17 145.72-21.63 146.46-22.41 147.21-23.19 147.65-24.22 148.09-25.24 148.09-26.34L148.09-26.34Q148.09-27.54 147.65-28.7 147.21-29.86 146.45-30.76 145.69-31.67 144.68-32.23 143.67-32.79 142.52-32.79L142.52-32.79ZM174.84 0.73L174.84 0.73Q171.01 0.73 167.83-0.7 164.66-2.12 162.17-4.76 159.68-7.4 158.39-11.01 157.09-14.62 157.09-18.51L157.09-18.51Q157.09-22.51 158.4-26.03 159.7-29.54 162.06-32.14 164.42-34.74 167.68-36.24 170.93-37.74 174.84-37.74L174.84-37.74Q178.77-37.74 182.04-36.24 185.31-34.74 187.66-32.14 190-29.54 191.3-26.03 192.59-22.51 192.59-18.51L192.59-18.51Q192.59-14.5 191.28-11 189.98-7.5 187.62-4.88 185.27-2.27 182.01-0.77 178.75 0.73 174.84 0.73ZM174.84-3.81L174.84-3.81Q177.75-3.81 180.1-5 182.46-6.2 184.12-8.22 185.78-10.23 186.68-12.89 187.59-15.55 187.59-18.51L187.59-18.51Q187.59-21.53 186.6-24.35 185.61-27.17 183.84-29.13 182.07-31.08 179.72-32.14 177.38-33.2 174.84-33.2L174.84-33.2Q171.94-33.2 169.57-32.01 167.2-30.81 165.54-28.8 163.88-26.78 162.98-24.11 162.07-21.44 162.07-18.51L162.07-18.51Q162.07-15.09 163.07-12.41 164.07-9.74 165.72-7.97 167.37-6.2 169.65-5 171.94-3.81 174.84-3.81ZM213.83 0.73L213.83 0.73Q209.99 0.73 206.82-0.7 203.65-2.12 201.16-4.76 198.67-7.4 197.37-11.01 196.08-14.62 196.08-18.51L196.08-18.51Q196.08-22.51 197.38-26.03 198.69-29.54 201.05-32.14 203.4-34.74 206.66-36.24 209.92-37.74 213.83-37.74L213.83-37.74Q217.76-37.74 221.03-36.24 224.3-34.74 226.65-32.14 228.99-29.54 230.28-26.03 231.58-22.51 231.58-18.51L231.58-18.51Q231.58-14.5 230.27-11 228.96-7.5 226.61-4.88 224.25-2.27 220.99-0.77 217.73 0.73 213.83 0.73ZM213.83-3.81L213.83-3.81Q216.73-3.81 219.09-5 221.44-6.2 223.11-8.22 224.77-10.23 225.67-12.89 226.57-15.55 226.57-18.51L226.57-18.51Q226.57-21.53 225.58-24.35 224.59-27.17 222.82-29.13 221.05-31.08 218.71-32.14 216.37-33.2 213.83-33.2L213.83-33.2Q210.92-33.2 208.55-32.01 206.19-30.81 204.53-28.8 202.87-26.78 201.96-24.11 201.06-21.44 201.06-18.51L201.06-18.51Q201.06-15.09 202.06-12.41 203.06-9.74 204.71-7.97 206.36-6.2 208.64-5 210.92-3.81 213.83-3.81ZM245.15-18.9L261.31-32.79 261.31-37.01 269.81-37.01 269.81-32.79 266.9-32.79 250.69-19.14 265.85-4.2 269.81-4.2 269.81 0 259.85 0 259.85-4.2 245.15-18.9ZM236.85-32.79L236.85-37.01 248.86-37.01 248.86-32.79 245.1-32.79 245.1-4.2 248.81-4.2 248.81 0 236.8 0 236.8-4.2 240.31-4.2 240.31-32.79 236.85-32.79ZM271.56 0Q271.56 0 271.56 0ZM317.51-27.25L312.26-27.25Q310.62-30.03 307.92-31.62 305.23-33.2 301.91-33.2L301.91-33.2Q299.07-33.2 296.73-32.01 294.39-30.81 292.71-28.8 291.04-26.78 290.11-24.13 289.19-21.48 289.19-18.55L289.19-18.55Q289.19-15.09 290.21-12.41 291.24-9.74 292.89-7.97 294.53-6.2 296.8-5.02 299.07-3.83 301.91-3.83L301.91-3.83Q305.76-3.83 308.62-5.7 311.48-7.57 313.5-11.84L313.5-11.84 317.8-9.81Q316.87-7.18 314.65-4.72 312.43-2.27 309.17-0.77 305.91 0.73 301.96 0.73L301.96 0.73Q298.17 0.73 295-0.7 291.82-2.12 289.35-4.76 286.87-7.4 285.56-11.01 284.25-14.62 284.25-18.55L284.25-18.55Q284.25-22.51 285.56-26.03 286.87-29.54 289.22-32.14 291.58-34.74 294.84-36.24 298.1-37.74 301.91-37.74L301.91-37.74Q305.3-37.74 307.77-36.78 310.23-35.82 311.95-34.48 313.67-33.15 314.92-31.59L314.92-31.59 317.51-31.59 317.51-27.25ZM322.83-32.79L322.83-37.01 334.84-37.01 334.84-32.79 331.13-32.79 331.13-4.2 343.9-4.2Q344.29-4.2 344.68-4.38 345.07-4.57 345.39-4.86 345.7-5.15 345.9-5.53 346.09-5.91 346.09-6.3L346.09-6.3 346.09-10.96 350.73-10.96 350.73 0 322.83 0 322.83-4.2 326.34-4.2 326.34-32.79 322.83-32.79ZM353.73-32.79L353.73-37.01 365.72-37.01 365.72-32.79 361.94-32.79 361.94-15.55Q361.94-12.45 362.63-10.27 363.33-8.08 364.56-6.7 365.79-5.32 367.49-4.69 369.19-4.05 371.21-4.05L371.21-4.05Q373.31-4.05 375.07-4.61 376.83-5.18 378.09-6.51 379.34-7.84 380.04-10.05 380.73-12.26 380.73-15.55L380.73-15.55 380.73-32.79 376.73-32.79 376.73-37.01 388.72-37.01 388.72-32.79 385.42-32.79 385.42-16.09Q385.42-12.08 384.31-8.98 383.2-5.88 381.27-3.78 379.34-1.68 376.73-0.6 374.12 0.49 371.12 0.49L371.12 0.49Q368.19 0.49 365.63-0.59 363.08-1.66 361.19-3.74 359.3-5.81 358.21-8.8 357.13-11.79 357.13-15.65L357.13-15.65 357.13-32.79 353.73-32.79ZM392.3 0L392.3-4.2 395.82-4.2 395.82-32.79 392.3-32.79 392.3-37.06 408.95-37.01Q411.2-37.01 413.18-36.17 415.16-35.33 416.62-33.87 418.09-32.42 418.93-30.44 419.77-28.47 419.77-26.2L419.77-26.2Q419.77-23.83 418.45-21.88 417.13-19.92 414.69-18.75L414.69-18.75Q415.89-18.12 416.86-17.27 417.84-16.43 418.52-15.43 419.21-14.43 419.59-13.31 419.97-12.18 419.97-11.01L419.97-11.01Q419.97-8.69 419.12-6.69 418.28-4.69 416.82-3.2 415.35-1.71 413.39-0.85 411.42 0 409.17 0L409.17 0 392.3 0ZM409.22-16.46L400.6-16.46 400.6-4.2 409.22-4.2Q410.39-4.2 411.4-4.79 412.4-5.37 413.15-6.31 413.91-7.25 414.34-8.45 414.76-9.64 414.76-10.89L414.76-10.89Q414.76-11.96 414.33-12.96 413.89-13.96 413.14-14.75 412.4-15.53 411.38-15.99 410.37-16.46 409.22-16.46L409.22-16.46ZM409-32.79L400.6-32.79 400.6-20.7 409-20.7Q410.18-20.7 411.19-21.17 412.2-21.63 412.95-22.41 413.69-23.19 414.13-24.22 414.57-25.24 414.57-26.34L414.57-26.34Q414.57-27.54 414.13-28.7 413.69-29.86 412.93-30.76 412.18-31.67 411.16-32.23 410.15-32.79 409-32.79L409-32.79Z" opacity="1" transform="matrix(1,0,0,1,0,0)" fill="black" class="wordmark-text-0" id="SvgjsPath3468" stroke-width="1" stroke="black" stroke-linejoin="round"></path></svg></g></svg></g></svg></g></svg></g></svg></g></svg></g></mask><g transform="matrix(1,0,0,1,27.643870967741947,107.61025311923063)"><svg viewBox="0 0 340.2322580645161 31.97949376153871" height="31.97949376153871" width="340.2322580645161"><g><svg viewBox="0 0 340.2322580645161 31.97949376153871" height="31.97949376153871" width="340.2322580645161"><g><svg viewBox="0 0 340.2322580645161 31.97949376153871" height="31.97949376153871" width="340.2322580645161"><g id="textblocktransform"><svg viewBox="0 0 340.2322580645161 31.97949376153871" height="31.97949376153871" width="340.2322580645161" id="textblock"><g><svg viewBox="0 0 340.2322580645161 31.97949376153871" height="31.97949376153871" width="340.2322580645161"><g transform="matrix(1,0,0,1,0,0)"><svg width="340.2322580645161" viewBox="0 -38.74 420.97 40.47" height="31.97949376153871" data-palette-color="#243cfc"><path d="M11.06 0L11.06-4.2 14.45-4.2 14.45-33.01 6.01-33.01 6.01-27.25 1-27.25 1-37.01 34.01-37.01 34.01-27.25 29-27.25 29-33.01 19.24-33.01 19.24-4.2 23.05-4.2 23.05 0 11.06 0ZM64.5-32.81L64.5-37.01 76.51-37.01 76.51-32.81 73-32.81 73-4.2 76.51-4.2 76.51 0 64.5 0 64.5-4.2 68.21-4.2 68.21-17.5 46.8-17.5 46.8-4.2 50.51-4.2 50.51 0 38.5 0 38.5-4.2 42.01-4.2 42.01-32.81 38.5-32.81 38.5-37.01 50.51-37.01 50.51-32.81 46.8-32.81 46.8-21.61 68.21-21.61 68.21-32.81 64.5-32.81ZM83.49-32.79L83.49-37.01 110-37.01 110-26.54 105-26.54 105-32.79 91.79-32.79 91.79-20.95 102.9-20.95 102.9-16.75 91.79-16.75 91.79-4.2 105-4.2 105-10.45 110-10.45 110 0 83.49 0 83.49-4.2 87.01-4.2 87.01-32.79 83.49-32.79ZM111.39 0Q111.39 0 111.39 0ZM125.82 0L125.82-4.2 129.34-4.2 129.34-32.79 125.82-32.79 125.82-37.06 142.47-37.01Q144.72-37.01 146.69-36.17 148.67-35.33 150.14-33.87 151.6-32.42 152.44-30.44 153.29-28.47 153.29-26.2L153.29-26.2Q153.29-23.83 151.97-21.88 150.65-19.92 148.21-18.75L148.21-18.75Q149.4-18.12 150.38-17.27 151.36-16.43 152.04-15.43 152.72-14.43 153.1-13.31 153.48-12.18 153.48-11.01L153.48-11.01Q153.48-8.69 152.64-6.69 151.8-4.69 150.33-3.2 148.87-1.71 146.9-0.85 144.94 0 142.69 0L142.69 0 125.82 0ZM142.74-16.46L134.12-16.46 134.12-4.2 142.74-4.2Q143.91-4.2 144.91-4.79 145.91-5.37 146.67-6.31 147.43-7.25 147.85-8.45 148.28-9.64 148.28-10.89L148.28-10.89Q148.28-11.96 147.84-12.96 147.4-13.96 146.66-14.75 145.91-15.53 144.9-15.99 143.89-16.46 142.74-16.46L142.74-16.46ZM142.52-32.79L134.12-32.79 134.12-20.7 142.52-20.7Q143.69-20.7 144.7-21.17 145.72-21.63 146.46-22.41 147.21-23.19 147.65-24.22 148.09-25.24 148.09-26.34L148.09-26.34Q148.09-27.54 147.65-28.7 147.21-29.86 146.45-30.76 145.69-31.67 144.68-32.23 143.67-32.79 142.52-32.79L142.52-32.79ZM174.84 0.73L174.84 0.73Q171.01 0.73 167.83-0.7 164.66-2.12 162.17-4.76 159.68-7.4 158.39-11.01 157.09-14.62 157.09-18.51L157.09-18.51Q157.09-22.51 158.4-26.03 159.7-29.54 162.06-32.14 164.42-34.74 167.68-36.24 170.93-37.74 174.84-37.74L174.84-37.74Q178.77-37.74 182.04-36.24 185.31-34.74 187.66-32.14 190-29.54 191.3-26.03 192.59-22.51 192.59-18.51L192.59-18.51Q192.59-14.5 191.28-11 189.98-7.5 187.62-4.88 185.27-2.27 182.01-0.77 178.75 0.73 174.84 0.73ZM174.84-3.81L174.84-3.81Q177.75-3.81 180.1-5 182.46-6.2 184.12-8.22 185.78-10.23 186.68-12.89 187.59-15.55 187.59-18.51L187.59-18.51Q187.59-21.53 186.6-24.35 185.61-27.17 183.84-29.13 182.07-31.08 179.72-32.14 177.38-33.2 174.84-33.2L174.84-33.2Q171.94-33.2 169.57-32.01 167.2-30.81 165.54-28.8 163.88-26.78 162.98-24.11 162.07-21.44 162.07-18.51L162.07-18.51Q162.07-15.09 163.07-12.41 164.07-9.74 165.72-7.97 167.37-6.2 169.65-5 171.94-3.81 174.84-3.81ZM213.83 0.73L213.83 0.73Q209.99 0.73 206.82-0.7 203.65-2.12 201.16-4.76 198.67-7.4 197.37-11.01 196.08-14.62 196.08-18.51L196.08-18.51Q196.08-22.51 197.38-26.03 198.69-29.54 201.05-32.14 203.4-34.74 206.66-36.24 209.92-37.74 213.83-37.74L213.83-37.74Q217.76-37.74 221.03-36.24 224.3-34.74 226.65-32.14 228.99-29.54 230.28-26.03 231.58-22.51 231.58-18.51L231.58-18.51Q231.58-14.5 230.27-11 228.96-7.5 226.61-4.88 224.25-2.27 220.99-0.77 217.73 0.73 213.83 0.73ZM213.83-3.81L213.83-3.81Q216.73-3.81 219.09-5 221.44-6.2 223.11-8.22 224.77-10.23 225.67-12.89 226.57-15.55 226.57-18.51L226.57-18.51Q226.57-21.53 225.58-24.35 224.59-27.17 222.82-29.13 221.05-31.08 218.71-32.14 216.37-33.2 213.83-33.2L213.83-33.2Q210.92-33.2 208.55-32.01 206.19-30.81 204.53-28.8 202.87-26.78 201.96-24.11 201.06-21.44 201.06-18.51L201.06-18.51Q201.06-15.09 202.06-12.41 203.06-9.74 204.71-7.97 206.36-6.2 208.64-5 210.92-3.81 213.83-3.81ZM245.15-18.9L261.31-32.79 261.31-37.01 269.81-37.01 269.81-32.79 266.9-32.79 250.69-19.14 265.85-4.2 269.81-4.2 269.81 0 259.85 0 259.85-4.2 245.15-18.9ZM236.85-32.79L236.85-37.01 248.86-37.01 248.86-32.79 245.1-32.79 245.1-4.2 248.81-4.2 248.81 0 236.8 0 236.8-4.2 240.31-4.2 240.31-32.79 236.85-32.79ZM271.56 0Q271.56 0 271.56 0ZM317.51-27.25L312.26-27.25Q310.62-30.03 307.92-31.62 305.23-33.2 301.91-33.2L301.91-33.2Q299.07-33.2 296.73-32.01 294.39-30.81 292.71-28.8 291.04-26.78 290.11-24.13 289.19-21.48 289.19-18.55L289.19-18.55Q289.19-15.09 290.21-12.41 291.24-9.74 292.89-7.97 294.53-6.2 296.8-5.02 299.07-3.83 301.91-3.83L301.91-3.83Q305.76-3.83 308.62-5.7 311.48-7.57 313.5-11.84L313.5-11.84 317.8-9.81Q316.87-7.18 314.65-4.72 312.43-2.27 309.17-0.77 305.91 0.73 301.96 0.73L301.96 0.73Q298.17 0.73 295-0.7 291.82-2.12 289.35-4.76 286.87-7.4 285.56-11.01 284.25-14.62 284.25-18.55L284.25-18.55Q284.25-22.51 285.56-26.03 286.87-29.54 289.22-32.14 291.58-34.74 294.84-36.24 298.1-37.74 301.91-37.74L301.91-37.74Q305.3-37.74 307.77-36.78 310.23-35.82 311.95-34.48 313.67-33.15 314.92-31.59L314.92-31.59 317.51-31.59 317.51-27.25ZM322.83-32.79L322.83-37.01 334.84-37.01 334.84-32.79 331.13-32.79 331.13-4.2 343.9-4.2Q344.29-4.2 344.68-4.38 345.07-4.57 345.39-4.86 345.7-5.15 345.9-5.53 346.09-5.91 346.09-6.3L346.09-6.3 346.09-10.96 350.73-10.96 350.73 0 322.83 0 322.83-4.2 326.34-4.2 326.34-32.79 322.83-32.79ZM353.73-32.79L353.73-37.01 365.72-37.01 365.72-32.79 361.94-32.79 361.94-15.55Q361.94-12.45 362.63-10.27 363.33-8.08 364.56-6.7 365.79-5.32 367.49-4.69 369.19-4.05 371.21-4.05L371.21-4.05Q373.31-4.05 375.07-4.61 376.83-5.18 378.09-6.51 379.34-7.84 380.04-10.05 380.73-12.26 380.73-15.55L380.73-15.55 380.73-32.79 376.73-32.79 376.73-37.01 388.72-37.01 388.72-32.79 385.42-32.79 385.42-16.09Q385.42-12.08 384.31-8.98 383.2-5.88 381.27-3.78 379.34-1.68 376.73-0.6 374.12 0.49 371.12 0.49L371.12 0.49Q368.19 0.49 365.63-0.59 363.08-1.66 361.19-3.74 359.3-5.81 358.21-8.8 357.13-11.79 357.13-15.65L357.13-15.65 357.13-32.79 353.73-32.79ZM392.3 0L392.3-4.2 395.82-4.2 395.82-32.79 392.3-32.79 392.3-37.06 408.95-37.01Q411.2-37.01 413.18-36.17 415.16-35.33 416.62-33.87 418.09-32.42 418.93-30.44 419.77-28.47 419.77-26.2L419.77-26.2Q419.77-23.83 418.45-21.88 417.13-19.92 414.69-18.75L414.69-18.75Q415.89-18.12 416.86-17.27 417.84-16.43 418.52-15.43 419.21-14.43 419.59-13.31 419.97-12.18 419.97-11.01L419.97-11.01Q419.97-8.69 419.12-6.69 418.28-4.69 416.82-3.2 415.35-1.71 413.39-0.85 411.42 0 409.17 0L409.17 0 392.3 0ZM409.22-16.46L400.6-16.46 400.6-4.2 409.22-4.2Q410.39-4.2 411.4-4.79 412.4-5.37 413.15-6.31 413.91-7.25 414.34-8.45 414.76-9.64 414.76-10.89L414.76-10.89Q414.76-11.96 414.33-12.96 413.89-13.96 413.14-14.75 412.4-15.53 411.38-15.99 410.37-16.46 409.22-16.46L409.22-16.46ZM409-32.79L400.6-32.79 400.6-20.7 409-20.7Q410.18-20.7 411.19-21.17 412.2-21.63 412.95-22.41 413.69-23.19 414.13-24.22 414.57-25.24 414.57-26.34L414.57-26.34Q414.57-27.54 414.13-28.7 413.69-29.86 412.93-30.76 412.18-31.67 411.16-32.23 410.15-32.79 409-32.79L409-32.79Z" opacity="1" transform="matrix(1,0,0,1,0,0)" fill="#000000" class="wordmark-text-0" data-fill-palette-color="primary" id="text-0"></path></svg></g></svg></g></svg></g></svg></g></svg></g></svg></g><g mask="url(#31319332-a1cc-4387-a5d4-ec435b604417)"><g transform="matrix(3.2912751677852348, 0, 0, 3.2912751677852348, 75.97294496644292, 1)"><svg xmlns="http://www.w3.org/2000/svg" xmlns:xlink="http://www.w3.org/1999/xlink" version="1.1" x="0" y="0" viewBox="7.251000000000005 8.361999999999995 74.00600000000001 74.5" enable-background="new 0 0 90 90" xml:space="preserve" height="74.5" width="74.00600000000001" class="icon-none" data-fill-palette-color="accent" id="none"><path d="M68.793 36.349c-3.149 0-7.198 0.828-10.643 3.485-3.75 2.891-5.723 7.682-9.154 7.682h-3.502v-6.892c0-3.43 4.82-5.404 7.712-9.154 2.657-3.446 3.5-7.494 3.5-10.643 0-6.884-5.574-12.465-12.458-12.465s-12.462 5.58-12.462 12.465c0 3.149 0.804 7.198 3.461 10.643 2.892 3.75 7.661 5.723 7.661 9.154v6.892h-3.395c-3.43 0-5.404-4.791-9.154-7.683-3.446-2.657-7.494-3.485-10.643-3.485-6.884 0-12.465 5.581-12.465 12.466s5.581 12.465 12.465 12.465c3.149 0 7.198-0.832 10.643-3.489 3.751-2.891 5.723-7.687 9.154-7.687h3.395v11.887c-0.862 10.817-2.586 13.347-6.897 19.897v0.975h8.243 8.136v-0.975c-4.31-6.55-6.035-9.08-6.897-19.897V50.102h3.502c3.43 0 5.404 4.796 9.154 7.687 3.446 2.657 7.494 3.488 10.643 3.488 6.884 0 12.465-5.58 12.465-12.464S75.677 36.349 68.793 36.349z" fill="#000000" data-fill-palette-color="accent"></path></svg></g></g></svg></g><defs></defs></svg><rect width="395.52" height="247.2" fill="none" stroke="none" visibility="hidden"></rect></g></svg></g></svg>