<svg xmlns="http://www.w3.org/2000/svg" version="1.1" xmlns:xlink="http://www.w3.org/1999/xlink" xmlns:svgjs="http://svgjs.dev/svgjs" width="1500" height="1500" viewBox="0 0 1500 1500"><rect width="1500" height="1500" fill="#e0ded5"></rect><g transform="matrix(0.6666666666666666,0,0,0.6666666666666666,249.39393939393938,438.5856950067477)"><svg viewBox="0 0 396 247" data-background-color="#e0ded5" preserveAspectRatio="xMidYMid meet" height="935" width="1500" xmlns="http://www.w3.org/2000/svg" xmlns:xlink="http://www.w3.org/1999/xlink"><g id="tight-bounds" transform="matrix(1,0,0,1,0.2400000000000091,-0.09999999999999432)"><svg viewBox="0 0 395.52 247.2" height="247.2" width="395.52"><g><svg></svg></g><g><svg viewBox="0 0 395.52 247.2" height="247.2" width="395.52"><mask id="2e29ada9-274a-4999-bbef-909980402c10"><rect width="640" height="400" fill="white"></rect><g transform="matrix(1,0,0,1,27.643870967741947,103.82825616428079)"><svg viewBox="0 0 340.2322580645161 39.54348767143843" height="39.54348767143843" width="340.2322580645161"><g><svg viewBox="0 0 340.2322580645161 39.54348767143843" height="39.54348767143843" width="340.2322580645161"><g><svg viewBox="0 0 340.2322580645161 39.54348767143843" height="39.54348767143843" width="340.2322580645161"><g><svg viewBox="0 0 340.2322580645161 39.54348767143843" height="39.54348767143843" width="340.2322580645161"><g id="SvgjsG2083"><svg viewBox="0 0 340.2322580645161 39.54348767143843" height="39.54348767143843" width="340.2322580645161" id="SvgjsSvg2082"><g><svg viewBox="0 0 340.2322580645161 39.54348767143843" height="39.54348767143843" width="340.2322580645161"><g transform="matrix(1,0,0,1,0,0)"><svg width="340.2322580645161" viewBox="1.4900000000000002 -38.74 384.32 45.550000000000004" height="39.54348767143843" data-palette-color="#243cfc"><path d="M3.66-32.79L3.66-37.01 15.65-37.01 15.65-32.79 12.55-32.79 12.55-4.2Q12.55-3.66 12.29-2.94 12.04-2.22 11.63-1.42 11.23-0.61 10.69 0.23 10.16 1.07 9.62 1.88L9.62 1.88Q8.33 3.76 6.69 5.81L6.69 5.81 2.49 5.44Q3.93 3.25 5.08 1.25L5.08 1.25Q5.57 0.39 6.03-0.5 6.49-1.39 6.86-2.22 7.23-3.05 7.46-3.77 7.69-4.49 7.69-5L7.69-5 7.69-32.79 3.66-32.79ZM36.15 0.73L36.15 0.73Q32.32 0.73 29.15-0.7 25.97-2.12 23.48-4.76 20.99-7.4 19.7-11.01 18.41-14.62 18.41-18.51L18.41-18.51Q18.41-22.51 19.71-26.03 21.02-29.54 23.37-32.14 25.73-34.74 28.99-36.24 32.25-37.74 36.15-37.74L36.15-37.74Q40.09-37.74 43.36-36.24 46.63-34.74 48.97-32.14 51.32-29.54 52.61-26.03 53.9-22.51 53.9-18.51L53.9-18.51Q53.9-14.5 52.6-11 51.29-7.5 48.94-4.88 46.58-2.27 43.32-0.77 40.06 0.73 36.15 0.73ZM36.15-3.81L36.15-3.81Q39.06-3.81 41.42-5 43.77-6.2 45.43-8.22 47.09-10.23 48-12.89 48.9-15.55 48.9-18.51L48.9-18.51Q48.9-21.53 47.91-24.35 46.92-27.17 45.15-29.13 43.38-31.08 41.04-32.14 38.69-33.2 36.15-33.2L36.15-33.2Q33.25-33.2 30.88-32.01 28.51-30.81 26.85-28.8 25.19-26.78 24.29-24.11 23.39-21.44 23.39-18.51L23.39-18.51Q23.39-15.09 24.39-12.41 25.39-9.74 27.04-7.97 28.68-6.2 30.97-5 33.25-3.81 36.15-3.81ZM59.13-32.79L59.13-37.01 70.94-37.01 70.94-32.79 67.43-32.79 67.43-4.2 70.94-4.2 70.94 0 59.13 0 59.13-4.2 62.64-4.2 62.64-32.79 59.13-32.79ZM100.82-32.79L100.82-37.01 112.83-37.01 112.83-32.79 109.68-32.79 109.68 0 103.43 0 86.22-30.69 86.22-4.2 90.03-4.2 90.03 0 78.02 0 78.02-4.2 81.44-4.2 81.44-32.79 77.92-32.79 77.92-37.06 87.88-37.06 104.78-6.67 104.97-7.84 104.97-32.79 100.82-32.79ZM114.08 0Q114.08 0 114.08 0ZM136.07 0L136.07-4.2 139.47-4.2 139.47-33.01 131.02-33.01 131.02-27.25 126.01-27.25 126.01-37.01 159.02-37.01 159.02-27.25 154.02-27.25 154.02-33.01 144.25-33.01 144.25-4.2 148.06-4.2 148.06 0 136.07 0ZM189.51-32.81L189.51-37.01 201.52-37.01 201.52-32.81 198.01-32.81 198.01-4.2 201.52-4.2 201.52 0 189.51 0 189.51-4.2 193.22-4.2 193.22-17.5 171.81-17.5 171.81-4.2 175.52-4.2 175.52 0 163.51 0 163.51-4.2 167.03-4.2 167.03-32.81 163.51-32.81 163.51-37.01 175.52-37.01 175.52-32.81 171.81-32.81 171.81-21.61 193.22-21.61 193.22-32.81 189.51-32.81ZM208.5-32.79L208.5-37.01 235.02-37.01 235.02-26.54 230.01-26.54 230.01-32.79 216.8-32.79 216.8-20.95 227.91-20.95 227.91-16.75 216.8-16.75 216.8-4.2 230.01-4.2 230.01-10.45 235.02-10.45 235.02 0 208.5 0 208.5-4.2 212.02-4.2 212.02-32.79 208.5-32.79ZM236.41 0Q236.41 0 236.41 0ZM282.35-27.25L277.1-27.25Q275.47-30.03 272.77-31.62 270.07-33.2 266.75-33.2L266.75-33.2Q263.92-33.2 261.57-32.01 259.23-30.81 257.56-28.8 255.89-26.78 254.96-24.13 254.03-21.48 254.03-18.55L254.03-18.55Q254.03-15.09 255.06-12.41 256.08-9.74 257.73-7.97 259.38-6.2 261.65-5.02 263.92-3.83 266.75-3.83L266.75-3.83Q270.61-3.83 273.46-5.7 276.32-7.57 278.35-11.84L278.35-11.84 282.64-9.81Q281.72-7.18 279.49-4.72 277.27-2.27 274.01-0.77 270.75 0.73 266.8 0.73L266.8 0.73Q263.01 0.73 259.84-0.7 256.67-2.12 254.19-4.76 251.71-7.4 250.4-11.01 249.1-14.62 249.1-18.55L249.1-18.55Q249.1-22.51 250.4-26.03 251.71-29.54 254.07-32.14 256.42-34.74 259.68-36.24 262.94-37.74 266.75-37.74L266.75-37.74Q270.14-37.74 272.61-36.78 275.08-35.82 276.8-34.48 278.52-33.15 279.76-31.59L279.76-31.59 282.35-31.59 282.35-27.25ZM287.67-32.79L287.67-37.01 299.68-37.01 299.68-32.79 295.97-32.79 295.97-4.2 308.74-4.2Q309.13-4.2 309.52-4.38 309.91-4.57 310.23-4.86 310.55-5.15 310.74-5.53 310.94-5.91 310.94-6.3L310.94-6.3 310.94-10.96 315.58-10.96 315.58 0 287.67 0 287.67-4.2 291.19-4.2 291.19-32.79 287.67-32.79ZM318.58-32.79L318.58-37.01 330.56-37.01 330.56-32.79 326.78-32.79 326.78-15.55Q326.78-12.45 327.47-10.27 328.17-8.08 329.4-6.7 330.64-5.32 332.33-4.69 334.03-4.05 336.06-4.05L336.06-4.05Q338.16-4.05 339.91-4.61 341.67-5.18 342.93-6.51 344.19-7.84 344.88-10.05 345.58-12.26 345.58-15.55L345.58-15.55 345.58-32.79 341.57-32.79 341.57-37.01 353.56-37.01 353.56-32.79 350.27-32.79 350.27-16.09Q350.27-12.08 349.15-8.98 348.04-5.88 346.12-3.78 344.19-1.68 341.57-0.6 338.96 0.49 335.96 0.49L335.96 0.49Q333.03 0.49 330.48-0.59 327.93-1.66 326.03-3.74 324.14-5.81 323.06-8.8 321.97-11.79 321.97-15.65L321.97-15.65 321.97-32.79 318.58-32.79ZM357.15 0L357.15-4.2 360.66-4.2 360.66-32.79 357.15-32.79 357.15-37.06 373.8-37.01Q376.04-37.01 378.02-36.17 380-35.33 381.46-33.87 382.93-32.42 383.77-30.44 384.61-28.47 384.61-26.2L384.61-26.2Q384.61-23.83 383.3-21.88 381.98-19.92 379.54-18.75L379.54-18.75Q380.73-18.12 381.71-17.27 382.68-16.43 383.37-15.43 384.05-14.43 384.43-13.31 384.81-12.18 384.81-11.01L384.81-11.01Q384.81-8.69 383.97-6.69 383.12-4.69 381.66-3.2 380.19-1.71 378.23-0.85 376.26 0 374.02 0L374.02 0 357.15 0ZM374.07-16.46L365.45-16.46 365.45-4.2 374.07-4.2Q375.24-4.2 376.24-4.79 377.24-5.37 378-6.31 378.75-7.25 379.18-8.45 379.61-9.64 379.61-10.89L379.61-10.89Q379.61-11.96 379.17-12.96 378.73-13.96 377.99-14.75 377.24-15.53 376.23-15.99 375.21-16.46 374.07-16.46L374.07-16.46ZM373.85-32.79L365.45-32.79 365.45-20.7 373.85-20.7Q375.02-20.7 376.03-21.17 377.05-21.63 377.79-22.41 378.53-23.19 378.97-24.22 379.41-25.24 379.41-26.34L379.41-26.34Q379.41-27.54 378.97-28.7 378.53-29.86 377.78-30.76 377.02-31.67 376.01-32.23 374.99-32.79 373.85-32.79L373.85-32.79Z" opacity="1" transform="matrix(1,0,0,1,0,0)" fill="black" class="wordmark-text-0" id="SvgjsPath2081" stroke-width="1" stroke="black" stroke-linejoin="round"></path></svg></g></svg></g></svg></g></svg></g></svg></g></svg></g></svg></g></mask><g transform="matrix(1,0,0,1,27.643870967741947,103.82825616428079)"><svg viewBox="0 0 340.2322580645161 39.54348767143843" height="39.54348767143843" width="340.2322580645161"><g><svg viewBox="0 0 340.2322580645161 39.54348767143843" height="39.54348767143843" width="340.2322580645161"><g><svg viewBox="0 0 340.2322580645161 39.54348767143843" height="39.54348767143843" width="340.2322580645161"><g><svg viewBox="0 0 340.2322580645161 39.54348767143843" height="39.54348767143843" width="340.2322580645161"><g id="textblocktransform"><svg viewBox="0 0 340.2322580645161 39.54348767143843" height="39.54348767143843" width="340.2322580645161" id="textblock"><g><svg viewBox="0 0 340.2322580645161 39.54348767143843" height="39.54348767143843" width="340.2322580645161"><g transform="matrix(1,0,0,1,0,0)"><svg width="340.2322580645161" viewBox="1.4900000000000002 -38.74 384.32 45.550000000000004" height="39.54348767143843" data-palette-color="#243cfc"><path d="M3.66-32.79L3.66-37.01 15.65-37.01 15.65-32.79 12.55-32.79 12.55-4.2Q12.55-3.66 12.29-2.94 12.04-2.22 11.63-1.42 11.23-0.61 10.69 0.23 10.16 1.07 9.62 1.88L9.62 1.88Q8.33 3.76 6.69 5.81L6.69 5.81 2.49 5.44Q3.93 3.25 5.08 1.25L5.08 1.25Q5.57 0.39 6.03-0.5 6.49-1.39 6.86-2.22 7.23-3.05 7.46-3.77 7.69-4.49 7.69-5L7.69-5 7.69-32.79 3.66-32.79ZM36.15 0.73L36.15 0.73Q32.32 0.73 29.15-0.7 25.97-2.12 23.48-4.76 20.99-7.4 19.7-11.01 18.41-14.62 18.41-18.51L18.41-18.51Q18.41-22.51 19.71-26.03 21.02-29.54 23.37-32.14 25.73-34.74 28.99-36.24 32.25-37.74 36.15-37.74L36.15-37.74Q40.09-37.74 43.36-36.24 46.63-34.74 48.97-32.14 51.32-29.54 52.61-26.03 53.9-22.51 53.9-18.51L53.9-18.51Q53.9-14.5 52.6-11 51.29-7.5 48.94-4.88 46.58-2.27 43.32-0.77 40.06 0.73 36.15 0.73ZM36.15-3.81L36.15-3.81Q39.06-3.81 41.42-5 43.77-6.2 45.43-8.22 47.09-10.23 48-12.89 48.9-15.55 48.9-18.51L48.9-18.51Q48.9-21.53 47.91-24.35 46.92-27.17 45.15-29.13 43.38-31.08 41.04-32.14 38.69-33.2 36.15-33.2L36.15-33.2Q33.25-33.2 30.88-32.01 28.51-30.81 26.85-28.8 25.19-26.78 24.29-24.11 23.39-21.44 23.39-18.51L23.39-18.51Q23.39-15.09 24.39-12.41 25.39-9.74 27.04-7.97 28.68-6.2 30.97-5 33.25-3.81 36.15-3.81ZM59.13-32.79L59.13-37.01 70.94-37.01 70.94-32.79 67.43-32.79 67.43-4.2 70.94-4.2 70.94 0 59.13 0 59.13-4.2 62.64-4.2 62.64-32.79 59.13-32.79ZM100.82-32.79L100.82-37.01 112.83-37.01 112.83-32.79 109.68-32.79 109.68 0 103.43 0 86.22-30.69 86.22-4.2 90.03-4.2 90.03 0 78.02 0 78.02-4.2 81.44-4.2 81.44-32.79 77.92-32.79 77.92-37.06 87.88-37.06 104.78-6.67 104.97-7.84 104.97-32.79 100.82-32.79ZM114.08 0Q114.08 0 114.08 0ZM136.07 0L136.07-4.2 139.47-4.2 139.47-33.01 131.02-33.01 131.02-27.25 126.01-27.25 126.01-37.01 159.02-37.01 159.02-27.25 154.02-27.25 154.02-33.01 144.25-33.01 144.25-4.2 148.06-4.2 148.06 0 136.07 0ZM189.51-32.81L189.51-37.01 201.52-37.01 201.52-32.81 198.01-32.81 198.01-4.2 201.52-4.2 201.52 0 189.51 0 189.51-4.2 193.22-4.2 193.22-17.5 171.81-17.5 171.81-4.2 175.52-4.2 175.52 0 163.51 0 163.51-4.2 167.03-4.2 167.03-32.81 163.51-32.81 163.51-37.01 175.52-37.01 175.52-32.81 171.81-32.81 171.81-21.61 193.22-21.61 193.22-32.81 189.51-32.81ZM208.5-32.79L208.5-37.01 235.02-37.01 235.02-26.54 230.01-26.54 230.01-32.79 216.8-32.79 216.8-20.95 227.91-20.95 227.91-16.75 216.8-16.75 216.8-4.2 230.01-4.2 230.01-10.45 235.02-10.45 235.02 0 208.5 0 208.5-4.2 212.02-4.2 212.02-32.79 208.5-32.79ZM236.41 0Q236.41 0 236.41 0ZM282.35-27.25L277.1-27.25Q275.47-30.03 272.77-31.62 270.07-33.2 266.75-33.2L266.75-33.2Q263.92-33.2 261.57-32.01 259.23-30.81 257.56-28.8 255.89-26.78 254.96-24.13 254.03-21.48 254.03-18.55L254.03-18.55Q254.03-15.09 255.06-12.41 256.08-9.74 257.73-7.97 259.38-6.2 261.65-5.02 263.92-3.83 266.75-3.83L266.75-3.83Q270.61-3.83 273.46-5.7 276.32-7.57 278.35-11.84L278.35-11.84 282.64-9.81Q281.72-7.18 279.49-4.72 277.27-2.27 274.01-0.77 270.75 0.73 266.8 0.73L266.8 0.73Q263.01 0.73 259.84-0.7 256.67-2.12 254.19-4.76 251.71-7.4 250.4-11.01 249.1-14.62 249.1-18.55L249.1-18.55Q249.1-22.51 250.4-26.03 251.71-29.54 254.07-32.14 256.42-34.74 259.68-36.24 262.94-37.74 266.75-37.74L266.75-37.74Q270.14-37.74 272.61-36.78 275.08-35.82 276.8-34.48 278.52-33.15 279.76-31.59L279.76-31.59 282.35-31.59 282.35-27.25ZM287.67-32.79L287.67-37.01 299.68-37.01 299.68-32.79 295.97-32.79 295.97-4.2 308.74-4.2Q309.13-4.2 309.52-4.38 309.91-4.57 310.23-4.86 310.55-5.15 310.74-5.53 310.94-5.91 310.94-6.3L310.94-6.3 310.94-10.96 315.58-10.96 315.58 0 287.67 0 287.67-4.2 291.19-4.2 291.19-32.79 287.67-32.79ZM318.58-32.79L318.58-37.01 330.56-37.01 330.56-32.79 326.78-32.79 326.78-15.55Q326.78-12.45 327.47-10.27 328.17-8.08 329.4-6.7 330.64-5.32 332.33-4.69 334.03-4.05 336.06-4.05L336.06-4.05Q338.16-4.05 339.91-4.61 341.67-5.18 342.93-6.51 344.19-7.84 344.88-10.05 345.58-12.26 345.58-15.55L345.58-15.55 345.58-32.79 341.57-32.79 341.57-37.01 353.56-37.01 353.56-32.79 350.27-32.79 350.27-16.09Q350.27-12.08 349.15-8.98 348.04-5.88 346.12-3.78 344.19-1.68 341.57-0.6 338.96 0.49 335.96 0.49L335.96 0.49Q333.03 0.49 330.48-0.59 327.93-1.66 326.03-3.74 324.14-5.81 323.06-8.8 321.97-11.79 321.97-15.65L321.97-15.65 321.97-32.79 318.58-32.79ZM357.15 0L357.15-4.2 360.66-4.2 360.66-32.79 357.15-32.79 357.15-37.06 373.8-37.01Q376.04-37.01 378.02-36.17 380-35.33 381.46-33.87 382.93-32.42 383.77-30.44 384.61-28.47 384.61-26.2L384.61-26.2Q384.61-23.83 383.3-21.88 381.98-19.92 379.54-18.75L379.54-18.75Q380.73-18.12 381.71-17.27 382.68-16.43 383.37-15.43 384.05-14.43 384.43-13.31 384.81-12.18 384.81-11.01L384.81-11.01Q384.81-8.69 383.97-6.69 383.12-4.69 381.66-3.2 380.19-1.71 378.23-0.85 376.26 0 374.02 0L374.02 0 357.15 0ZM374.07-16.46L365.45-16.46 365.45-4.2 374.07-4.2Q375.24-4.2 376.24-4.79 377.24-5.37 378-6.31 378.75-7.25 379.18-8.45 379.61-9.64 379.61-10.89L379.61-10.89Q379.61-11.96 379.17-12.96 378.73-13.96 377.99-14.75 377.24-15.53 376.23-15.99 375.21-16.46 374.07-16.46L374.07-16.46ZM373.85-32.79L365.45-32.79 365.45-20.7 373.85-20.7Q375.02-20.7 376.03-21.17 377.05-21.63 377.79-22.41 378.53-23.19 378.97-24.22 379.41-25.24 379.41-26.34L379.41-26.34Q379.41-27.54 378.97-28.7 378.53-29.86 377.78-30.76 377.02-31.67 376.01-32.23 374.99-32.79 373.85-32.79L373.85-32.79Z" opacity="1" transform="matrix(1,0,0,1,0,0)" fill="#243cfc" class="wordmark-text-0" data-fill-palette-color="primary" id="text-0"></path></svg></g></svg></g></svg></g></svg></g></svg></g></svg></g></svg></g><g mask="url(#2e29ada9-274a-4999-bbef-909980402c10)"><g transform="matrix(3.2912751677852348, 0, 0, 3.2912751677852348, 75.97294496644292, 1)"><svg xmlns="http://www.w3.org/2000/svg" xmlns:xlink="http://www.w3.org/1999/xlink" version="1.1" x="0" y="0" viewBox="7.251000000000005 8.361999999999995 74.00600000000001 74.5" enable-background="new 0 0 90 90" xml:space="preserve" height="74.5" width="74.00600000000001" class="icon-none" data-fill-palette-color="accent" id="none"><path d="M68.793 36.349c-3.149 0-7.198 0.828-10.643 3.485-3.75 2.891-5.723 7.682-9.154 7.682h-3.502v-6.892c0-3.43 4.82-5.404 7.712-9.154 2.657-3.446 3.5-7.494 3.5-10.643 0-6.884-5.574-12.465-12.458-12.465s-12.462 5.58-12.462 12.465c0 3.149 0.804 7.198 3.461 10.643 2.892 3.75 7.661 5.723 7.661 9.154v6.892h-3.395c-3.43 0-5.404-4.791-9.154-7.683-3.446-2.657-7.494-3.485-10.643-3.485-6.884 0-12.465 5.581-12.465 12.466s5.581 12.465 12.465 12.465c3.149 0 7.198-0.832 10.643-3.489 3.751-2.891 5.723-7.687 9.154-7.687h3.395v11.887c-0.862 10.817-2.586 13.347-6.897 19.897v0.975h8.243 8.136v-0.975c-4.31-6.55-6.035-9.08-6.897-19.897V50.102h3.502c3.43 0 5.404 4.796 9.154 7.687 3.446 2.657 7.494 3.488 10.643 3.488 6.884 0 12.465-5.58 12.465-12.464S75.677 36.349 68.793 36.349z" fill="#d9fe00" data-fill-palette-color="accent"></path></svg></g></g></svg></g><defs></defs></svg><rect width="395.52" height="247.2" fill="none" stroke="none" visibility="hidden"></rect></g></svg></g></svg>